#!OML:ASF F:\Work\Patient Classification 1\justin\Session 1\justin.ASF
:FULLY-SPECIFIED
:DEGREES
6706
root -0.502687 17.0601 1.13649 -36.3354 76.6387 -42.8818
lowerback 23.1034 -0.982547 -0.79423
upperback 5.04655 -1.08044 0.877607
thorax -7.30021 -0.372589 1.70465
lowerneck 8.94648 -18.3805 -23.8657
upperneck -6.95802 -27.0289 32.4033
head 4.72484 -14.2985 11.9675
rclavicle 1.82882e-014 7.95139e-015
rhumerus -27.2366 2.64689 -83.8116
rradius 137.93
rwrist -19.1179
rhand -22.4697 29.3019
rfingers 7.12502
rthumb 3.95517 -0.641155
lclavicle 1.82882e-014 7.95139e-015
lhumerus -29.6068 -11.8867 83.0331
lradius 107.825
lwrist 28.6617
lhand 0.275761 12.187
lfingers 7.12502
lthumb 25.8545 40.4495
rfemur -29.05 -16.2597 10.9871
rtibia 46.4037
rfoot -5.35291 -15.886
rtoes -2.56891
lfemur -24.8516 3.06282 5.55091
ltibia 43.9839
lfoot -19.32 -21.4621
ltoes -13.5419
6707
root -0.538371 17.0188 1.17686 -36.6551 77.1911 -43.2899
lowerback 23.3871 -1.22998 -0.867367
upperback 5.46625 -1.42865 0.40101
thorax -6.98473 -0.533483 1.32537
lowerneck 8.70374 -18.3753 -23.3632
upperneck -7.41531 -26.8634 32.9148
head 4.6171 -14.2423 12.0988
rclavicle -2.3059e-014 -7.95139e-015
rhumerus -26.8843 2.77368 -84.4023
rradius 137.883
rwrist -19.267
rhand -22.8752 29.6151
rfingers 7.12502
rthumb 3.56359 -0.334826
lclavicle -2.3059e-014 -7.95139e-015
lhumerus -29.6095 -9.07294 80.2375
lradius 106.366
lwrist 29.3675
lhand 0.486866 12.4419
lfingers 7.12502
lthumb 26.0566 40.6748
rfemur -29.2807 -16.6995 10.3764
rtibia 46.4555
rfoot -5.31875 -16.294
rtoes -3.31035
lfemur -25.5991 3.09615 5.38093
ltibia 44.5234
lfoot -19.2314 -21.8751
ltoes -12.9541
6708
root -0.572895 16.9761 1.21864 -37.6706 77.4196 -44.4959
lowerback 23.6176 -1.48996 -0.439175
upperback 5.84088 -1.67547 -0.0992874
thorax -6.71457 -0.650449 0.605468
lowerneck 8.63578 -18.3864 -23.0936
upperneck -7.79882 -26.8175 33.7261
head 4.63032 -14.2666 12.3482
rclavicle -3.73715e-014 -1.27222e-014
rhumerus -26.5988 2.55369 -84.9025
rradius 137.897
rwrist -19.6258
rhand -22.5624 29.6243
rfingers 7.12502
rthumb 3.86564 -0.320365
lclavicle -3.73715e-014 -1.27222e-014
lhumerus -29.5 -6.1313 77.508
lradius 104.551
lwrist 30.1233
lhand 1.87559 12.8193
lfingers 7.12502
lthumb 27.3856 40.8494
rfemur -29.5673 -16.7047 10.1305
rtibia 46.378
rfoot -5.44339 -16.8365
rtoes -2.67663
lfemur -26.3757 3.49956 5.57451
ltibia 45.057
lfoot -19.437 -22.2063
ltoes -14.089
6709
root -0.606489 16.9345 1.26483 -38.6406 77.3301 -45.6676
lowerback 23.8733 -1.64249 0.274286
upperback 6.20617 -1.71598 -0.646284
thorax -6.48393 -0.666244 -0.385765
lowerneck 8.53887 -18.4738 -22.8919
upperneck -8.16327 -26.8994 34.6728
head 4.7304 -14.3553 12.6149
rclavicle 3.97569e-015 1.11319e-014
rhumerus -26.4885 2.14111 -85.3522
rradius 137.94
rwrist -19.5058
rhand -22.749 29.4927
rfingers 7.12502
rthumb 3.68547 -0.455176
lclavicle 3.97569e-015 1.11319e-014
lhumerus -29.2108 -3.35101 74.7314
lradius 102.5
lwrist 31.1628
lhand 2.73739 13.5434
lfingers 7.12502
lthumb 28.2096 41.4403
rfemur -29.8533 -16.1712 10.0516
rtibia 46.1948
rfoot -5.88563 -17.6835
rtoes 0.170365
lfemur -27.0331 4.33584 5.97599
ltibia 45.5883
lfoot -19.8724 -22.512
ltoes -16.0584
6710
root -0.638477 16.8918 1.31682 -39.1589 77.2362 -46.3694
lowerback 24.1783 -1.8231 0.921557
upperback 6.53329 -1.81094 -1.26168
thorax -6.3217 -0.703009 -1.39741
lowerneck 8.5175 -18.5155 -22.3878
upperneck -8.75854 -26.8171 35.4134
head 4.61942 -14.38 12.8355
rclavicle 1.11319e-014 -9.54166e-015
rhumerus -26.4905 1.73939 -86.0491
rradius 137.91
rwrist -19.0286
rhand -22.7428 29.5886
rfingers 7.12502
rthumb 3.6915 -0.359128
lclavicle 1.11319e-014 -9.54166e-015
lhumerus -28.9996 -0.560711 71.7568
lradius 100.226
lwrist 32.1212
lhand 2.97597 13.9105
lfingers 7.12502
lthumb 28.4376 41.7695
rfemur -30.1723 -15.8202 9.89969
rtibia 45.952
rfoot -6.00344 -18.2536
rtoes 1.66071
lfemur -27.6105 4.97871 6.36551
ltibia 46.1105
lfoot -19.9366 -23.0934
ltoes -15.8727
6711
root -0.668963 16.8458 1.36959 -39.1593 77.2605 -46.6896
lowerback 24.3028 -2.06585 1.47298
upperback 6.8075 -2.01708 -1.93398
thorax -6.13339 -0.791232 -2.38792
lowerneck 8.6122 -18.4747 -21.8321
upperneck -9.32134 -26.6225 36.1331
head 4.45467 -14.3646 13.093
rclavicle -3.57812e-014 -3.18055e-015
rhumerus -26.5218 1.22647 -86.8176
rradius 137.85
rwrist -19.3428
rhand -21.9702 29.8608
rfingers 7.12502
rthumb 4.43752 -0.0727532
lclavicle -3.57812e-014 -3.18055e-015
lhumerus -28.8637 2.47575 68.6597
lradius 97.6611
lwrist 32.7503
lhand 3.42169 13.6741
lfingers 7.12502
lthumb 28.8634 41.4612
rfemur -30.6732 -15.6826 9.65975
rtibia 45.6792
rfoot -5.62733 -18.5338
rtoes 1.95887
lfemur -28.323 5.36777 6.62814
ltibia 46.6038
lfoot -19.9111 -23.5365
ltoes -15.3158
6712
root -0.700622 16.7959 1.42898 -38.6243 77.234 -46.6391
lowerback 24.214 -2.28728 1.81992
upperback 7.03746 -2.24778 -2.55904
thorax -5.88649 -0.890219 -3.20671
lowerneck 8.46729 -18.4827 -21.3445
upperneck -9.46695 -26.555 36.6343
head 4.44964 -14.3623 13.2113
rclavicle -2.22639e-014 2.54444e-014
rhumerus -26.5199 0.751086 -87.403
rradius 137.69
rwrist -20.2271
rhand -20.9495 30.2103
rfingers 7.12502
rthumb 5.42315 0.29973
lclavicle -2.22639e-014 2.54444e-014
lhumerus -28.8525 5.66606 65.5251
lradius 94.9421
lwrist 33.153
lhand 3.51157 13.4252
lfingers 7.12502
lthumb 28.9493 41.1977
rfemur -31.3901 -15.4069 9.47757
rtibia 45.3584
rfoot -4.94428 -18.9483
rtoes 2.41745
lfemur -29.1227 5.92088 6.91288
ltibia 47.0558
lfoot -19.6656 -24.0679
ltoes -14.3145
6713
root -0.736849 16.7455 1.49774 -38.2188 77.0788 -46.8108
lowerback 24.0815 -2.43381 2.03824
upperback 7.25944 -2.39829 -2.9792
thorax -5.61318 -0.949448 -3.75251
lowerneck 8.01146 -18.4137 -21.5242
upperneck -9.28081 -26.5339 37.4741
head 4.78346 -14.3364 13.4828
rclavicle 7.95139e-015 -2.54444e-014
rhumerus -26.538 0.715911 -88.0944
rradius 137.467
rwrist -19.9581
rhand -20.9028 30.2368
rfingers 7.12502
rthumb 5.46822 0.327333
lclavicle 7.95139e-015 -2.54444e-014
lhumerus -28.7988 8.84918 62.5776
lradius 92.0811
lwrist 33.6519
lhand 2.83561 13.418
lfingers 7.12502
lthumb 28.3035 41.2994
rfemur -32.2275 -15.044 9.46396
rtibia 45.0136
rfoot -4.17721 -19.4101
rtoes 2.56609
lfemur -29.9302 6.67172 7.36898
ltibia 47.4606
lfoot -19.3071 -24.7322
ltoes -13.2637
6714
root -0.762565 16.7031 1.55503 -37.4595 77.1401 -46.3779
lowerback 24.1727 -2.56499 2.4646
upperback 7.52138 -2.48124 -3.63133
thorax -5.4224 -0.96796 -4.69317
lowerneck 7.76801 -18.3398 -21.5231
upperneck -9.29569 -26.4748 38.5091
head 5.0328 -14.333 13.8552
rclavicle 3.18055e-014 4.6118e-014
rhumerus -26.6796 0.350104 -88.968
rradius 137.311
rwrist -19.5242
rhand -21.0032 30.275
rfingers 7.12502
rthumb 5.37125 0.36304
lclavicle 3.18055e-014 4.6118e-014
lhumerus -28.4914 11.4241 59.3724
lradius 89.0759
lwrist 34.3601
lhand 2.62063 13.5702
lfingers 7.12502
lthumb 28.098 41.4855
rfemur -32.7113 -14.8608 9.01425
rtibia 44.6133
rfoot -3.5577 -19.6513
rtoes 3.44401
lfemur -30.5119 6.97448 7.473
ltibia 47.8482
lfoot -19.3926 -24.9347
ltoes -13.222
6715
root -0.791323 16.6592 1.61181 -36.6055 77.3755 -45.849
lowerback 24.3287 -2.72467 3.20149
upperback 7.70391 -2.54946 -4.61006
thorax -5.37617 -0.977787 -6.1891
lowerneck 7.83621 -18.6646 -19.8547
upperneck -9.75226 -26.6106 38.4759
head 4.65724 -14.4674 13.5892
rclavicle -1.59028e-014 -4.77083e-014
rhumerus -27.086 -0.601852 -90.3846
rradius 137.283
rwrist -19.6429
rhand -20.5384 30.4967
rfingers 7.12502
rthumb 5.82 0.596601
lclavicle -1.59028e-014 -4.77083e-014
lhumerus -27.7325 13.6821 56.6141
lradius 85.7574
lwrist 34.1274
lhand 2.76592 13.5282
lfingers 7.12502
lthumb 28.2369 41.4206
rfemur -33.2047 -15.0265 8.49472
rtibia 44.2052
rfoot -2.68676 -19.743
rtoes 3.51383
lfemur -31.191 7.31268 7.42281
ltibia 48.2154
lfoot -19.4496 -25.2382
ltoes -13.2816
6716
root -0.819182 16.6105 1.67228 -35.9786 77.3578 -45.585
lowerback 24.4902 -2.95792 3.87573
upperback 7.84505 -2.72012 -5.41252
thorax -5.38533 -1.04234 -7.43798
lowerneck 7.77654 -18.9629 -18.27
upperneck -10.1046 -26.7142 38.1761
head 4.27817 -14.5603 13.2421
rclavicle -3.18055e-015 -3.18055e-014
rhumerus -27.6683 -0.595997 -93.0638
rradius 137.168
rwrist -18.1808
rhand -20.535 30.6212
rfingers 7.12502
rthumb 5.82332 0.721226
lclavicle -3.18055e-015 -3.18055e-014
lhumerus -27.3536 16.2511 53.8348
lradius 82.5109
lwrist 34.1231
lhand 2.42737 13.6381
lfingers 7.12502
lthumb 27.9132 41.5836
rfemur -33.8085 -15.3435 8.31585
rtibia 43.7618
rfoot -1.56852 -19.4719
rtoes 2.4412
lfemur -31.8046 7.82132 7.61973
ltibia 48.5359
lfoot -19.5507 -25.4747
ltoes -13.8709
6717
root -0.84231 16.5639 1.7446 -35.009 76.9915 -45.0905
lowerback 24.4277 -3.15494 4.22123
upperback 8.00815 -2.91102 -5.91484
thorax -5.2419 -1.11715 -8.1565
lowerneck 7.48906 -18.8766 -17.9095
upperneck -10.1844 -26.5256 38.5571
head 4.27694 -14.4742 13.3502
rclavicle -6.36111e-014 -4.45278e-014
rhumerus -27.8545 -0.506317 -94.0439
rradius 136.966
rwrist -18.0402
rhand -20.4205 30.5068
rfingers 7.12502
rthumb 5.93385 0.6099
lclavicle -6.36111e-014 -4.45278e-014
lhumerus -27.5101 19.4193 51.1372
lradius 79.4776
lwrist 34.316
lhand 2.32708 14.0055
lfingers 7.12502
lthumb 27.8174 41.9665
rfemur -34.5935 -15.2429 8.38389
rtibia 43.3079
rfoot -0.880492 -19.2947
rtoes 2.10112
lfemur -32.2543 8.34923 8.14516
ltibia 48.7857
lfoot -19.3319 -25.7358
ltoes -13.2608
